<svg width="30" height="30" viewBox="0 0 30 30" fill="none" xmlns="http://www.w3.org/2000/svg">
<path d="M14.6103 1.99902C12.0821 2.00114 9.65749 3.00436 7.86599 4.78957C6.07448 6.57478 5.06169 8.99691 5.04883 11.5269C5.04883 15.3202 7.17541 18.4962 8.73382 20.8112L9.01791 21.2335C10.5684 23.4824 12.2318 25.6512 14.0016 27.7317L14.6184 28.4546L15.2353 27.7317C17.0049 25.6511 18.6682 23.4822 20.219 21.2335L20.5031 20.803C22.0534 18.4881 24.18 15.3202 24.18 11.5269C24.1671 8.9955 23.1532 6.57215 21.3599 4.78671C19.5667 3.00126 17.1399 1.99899 14.6103 1.99902V1.99902ZM14.6103 15.8076C13.5572 15.8076 12.5278 15.4951 11.6522 14.9096C10.7765 14.3241 10.0941 13.4919 9.69107 12.5182C9.28806 11.5446 9.18262 10.4732 9.38807 9.43957C9.59352 8.40595 10.1006 7.4565 10.8453 6.7113C11.5899 5.9661 12.5387 5.45861 13.5716 5.25301C14.6044 5.04741 15.675 5.15293 16.648 5.55623C17.6209 5.95953 18.4525 6.6425 19.0376 7.51876C19.6226 8.39503 19.9349 9.42523 19.9349 10.4791C19.9349 11.8923 19.3739 13.2476 18.3754 14.2469C17.3768 15.2462 16.0225 15.8076 14.6103 15.8076V15.8076Z" fill="#AF3D25"/>
</svg>
